# xmcd
#
# Track frame offsets:
# 150
# 16583
# 35545
# 53741
# 71305
# 89513
# 105958
# 127469
# 142360
# 160654
# 173051
# 189484
# 201125
# 219214
#
# Disc length: 3214 seconds
#
# Revision: 0
# Processed by: cddbd v1.4PL0 Copyright (c) Steve Scherf et al.
# Submitted via: Audion 3.0.2 (http://www.panic.com/audion/)
#
DISCID=be0c8c0e
DTITLE=sdf - sdf
DYEAR=1900
DGENRE=
TTITLE0=df
TTITLE1=fd
TTITLE2=ghf
TTITLE3=sdh
TTITLE4=dhdf
TTITLE5=gg
TTITLE6=dfgsdf
TTITLE7=dfhd
TTITLE8=dfhd
TTITLE9=dfh
TTITLE10=jt
TTITLE11=hrhj
TTITLE12=tjetj
TTITLE13=jet
EXTD=
EXTT0=
EXTT1=
EXTT2=
EXTT3=
EXTT4=
EXTT5=
EXTT6=
EXTT7=
EXTT8=
EXTT9=
EXTT10=
EXTT11=
EXTT12=
EXTT13=
PLAYORDER=
